<svg xmlns="http://www.w3.org/2000/svg" xmlns:xlink="http://www.w3.org/1999/xlink" width="500" zoomAndPan="magnify" viewBox="0 0 375 374.999991" height="500" preserveAspectRatio="xMidYMid meet" version="1.0"><defs><g/><clipPath id="07ecd2bcf0"><path d="M 86.789062 133.53125 L 298.195312 133.53125 L 298.195312 211.132812 L 86.789062 211.132812 Z M 86.789062 133.53125 " clip-rule="nonzero"/></clipPath><clipPath id="bd1f2546bf"><path d="M 169 100.132812 L 182 100.132812 L 182 114 L 169 114 Z M 169 100.132812 " clip-rule="nonzero"/></clipPath></defs><g clip-path="url(#07ecd2bcf0)"><path fill="#040606" d="M 90.753906 192.742188 C 96.191406 195.492188 102.253906 196.789062 108.207031 198.046875 C 115.835938 199.660156 123.492188 200.492188 131.261719 201.082031 C 138.660156 201.640625 145.976562 202.359375 153.3125 203.464844 C 157.003906 204.019531 160.679688 204.609375 164.386719 205.058594 C 166.957031 205.375 170.128906 206.015625 173.03125 206.015625 C 173.4375 205.578125 173.863281 205.15625 174.292969 204.753906 C 167.308594 203.691406 160.308594 202.640625 153.386719 201.15625 C 149.78125 200.386719 146.191406 199.210938 142.519531 198.773438 C 138.996094 198.351562 135.410156 198.445312 131.859375 198.191406 C 117.824219 197.226562 103.984375 194.28125 90.738281 189.558594 C 90.601562 190.585938 90.710938 191.84375 90.753906 192.742188 Z M 175.511719 203.710938 C 175.808594 203.46875 175.816406 203.480469 176.125 203.25 C 173.035156 201.875 169.574219 201.660156 166.4375 200.386719 C 163.09375 199.027344 159.835938 197.542969 156.417969 196.386719 C 148.90625 193.859375 141.039062 192.851562 133.246094 191.621094 C 125.53125 190.398438 117.824219 189.027344 110.0625 188.179688 C 106.183594 187.761719 102.289062 187.484375 98.382812 187.511719 C 97.367188 187.523438 96.355469 187.550781 95.339844 187.597656 C 94.402344 187.648438 92.128906 187.460938 91.496094 187.902344 C 91.421875 187.957031 91.351562 188.011719 91.292969 188.089844 C 104.695312 192.863281 118.6875 195.808594 132.910156 196.695312 C 136.277344 196.90625 139.691406 196.820312 143.039062 197.273438 C 146.03125 197.679688 148.941406 198.566406 151.890625 199.222656 C 159.359375 200.921875 166.9375 202.058594 174.503906 203.210938 C 174.925781 203.269531 175.464844 203.367188 175.511719 203.710938 Z M 176.289062 205.660156 C 177.972656 205.230469 179.335938 204.050781 180.75 203.109375 C 181.820312 202.394531 182.984375 201.902344 184.089844 201.273438 C 180.839844 202.019531 177.886719 203.617188 175.433594 205.839844 C 175.722656 205.789062 176.011719 205.730469 176.289062 205.660156 Z M 152.316406 167.582031 C 152.179688 167.464844 152.035156 167.355469 151.890625 167.234375 C 145.382812 164.949219 138.585938 163.257812 131.804688 162.019531 C 126.078125 160.984375 120.214844 160.304688 114.390625 160.519531 C 111.636719 160.628906 108.882812 160.945312 106.210938 161.664062 C 104.945312 162 103.710938 162.433594 102.515625 162.992188 C 102.402344 163.046875 102.273438 163.125 102.132812 163.210938 C 103.875 163.476562 105.589844 163.769531 107.320312 164.078125 C 113.289062 165.144531 119.214844 166.390625 125.101562 167.84375 C 139.84375 171.464844 154.957031 176.109375 167.949219 184.160156 C 170.894531 185.992188 173.800781 188.0625 176.382812 190.445312 C 176.460938 190.515625 176.554688 190.589844 176.632812 190.660156 C 179.335938 193.195312 181.699219 196.066406 183.402344 199.375 C 183.480469 199.527344 183.84375 199.585938 183.828125 199.722656 C 184.164062 199.640625 184.175781 199.652344 184.515625 199.582031 C 177.550781 186.089844 163.8125 176.933594 152.316406 167.582031 Z M 186.097656 188.535156 C 188.980469 184.199219 193.902344 181.515625 198.480469 179.140625 C 222.410156 166.734375 245.710938 153.066406 269.304688 140.039062 C 269.503906 139.929688 269.703125 139.820312 269.902344 139.714844 C 268.605469 140.222656 267.3125 140.757812 266.023438 141.335938 C 263.070312 142.671875 260.078125 143.957031 257.097656 145.238281 C 249.8125 148.398438 242.511719 151.527344 235.277344 154.78125 C 220.878906 161.246094 205.570312 167.796875 193.0625 177.566406 C 190.273438 179.730469 185.382812 183.484375 185.195312 187.574219 C 185.519531 187.882812 185.820312 188.203125 186.097656 188.535156 Z M 191.679688 201.425781 C 191.671875 201.425781 191.675781 201.421875 191.671875 201.421875 C 191.671875 201.425781 191.671875 201.425781 191.671875 201.425781 C 191.671875 201.425781 191.675781 201.425781 191.679688 201.425781 Z M 192.101562 203.207031 C 192.632812 203.648438 193.148438 204 193.691406 204.28125 C 193.777344 204.132812 193.929688 204.035156 194.140625 203.984375 C 194.441406 203.914062 194.742188 203.820312 195.035156 203.703125 C 194.765625 203.460938 194.496094 203.214844 194.230469 202.972656 C 193.734375 202.546875 193.066406 201.890625 192.449219 201.710938 C 191.683594 201.480469 190.921875 201.269531 190.144531 201.074219 C 190.726562 201.863281 191.351562 202.5625 192.101562 203.207031 Z M 234.511719 195.34375 C 226.851562 194.28125 218.941406 193.800781 211.417969 195.976562 C 207.875 197.003906 204.449219 198.597656 201.539062 200.898438 C 200.242188 201.925781 199.085938 203.074219 197.777344 203.984375 C 197.769531 203.984375 197.757812 203.996094 197.746094 204.007812 C 197.757812 203.996094 197.777344 203.996094 197.789062 203.996094 C 211.335938 200.382812 225.066406 197.503906 238.945312 195.429688 C 245.355469 194.484375 251.621094 193.808594 258.105469 194.097656 C 264.386719 194.375 271.292969 194.953125 276.601562 190.960938 C 277.40625 190.351562 278.484375 191.492188 277.683594 192.097656 C 273.140625 195.507812 267.675781 195.976562 262.164062 195.835938 C 259.171875 195.75 256.183594 195.507812 253.1875 195.527344 C 249.203125 195.5625 245.246094 196.101562 241.3125 196.664062 C 227.113281 198.699219 213.050781 201.585938 199.191406 205.238281 C 199.132812 205.25 199.074219 205.246094 199.007812 205.242188 L 199.050781 205.277344 C 199.097656 205.269531 199.144531 205.257812 199.191406 205.238281 C 202.632812 205.253906 206.082031 205.203125 209.523438 205.1875 C 217.429688 205.152344 225.167969 204.753906 232.957031 203.3125 C 239.929688 202.027344 247.066406 199.347656 254.242188 200.082031 C 258.386719 200.5 262.226562 201.105469 266.394531 200.433594 C 270.296875 199.808594 274.066406 198.597656 277.886719 197.648438 C 281.335938 196.789062 284.789062 196.5 288.273438 195.917969 C 289.746094 195.679688 291.273438 195.359375 292.554688 194.59375 C 292.964844 194.355469 293.285156 194.03125 293.597656 193.710938 C 293.519531 193.589844 293.476562 193.464844 293.472656 193.300781 C 293.375 190.859375 292.941406 188.558594 292.1875 186.257812 C 283.175781 187.441406 274.175781 188.636719 265.167969 189.835938 C 256.582031 190.964844 247.613281 193.015625 238.9375 192.390625 C 230.328125 191.773438 222.066406 189.382812 213.410156 191.015625 C 206.144531 192.394531 199.433594 195.804688 194 200.773438 C 194.9375 201.375 195.8125 202.105469 196.664062 202.902344 C 198.8125 201.570312 200.621094 199.5 202.710938 198.160156 C 205.511719 196.351562 208.648438 195.074219 211.867188 194.222656 C 219.289062 192.273438 227.039062 192.738281 234.5625 193.78125 C 235.558594 193.917969 235.519531 195.480469 234.511719 195.34375 Z M 289.433594 184.523438 C 289.476562 184.308594 289.503906 184.078125 289.535156 183.859375 C 278.386719 181.238281 266.914062 181.597656 255.574219 182.546875 C 244.140625 183.519531 232.71875 184.71875 221.292969 185.8125 C 221.097656 185.832031 220.949219 185.792969 220.835938 185.707031 C 218.265625 186.164062 215.695312 186.535156 213.125 186.992188 C 210.890625 187.394531 208.703125 187.910156 206.652344 188.707031 L 206.644531 188.707031 L 206.640625 188.71875 C 205.230469 189.257812 203.859375 189.941406 202.589844 190.820312 C 202.070312 191.171875 201.5625 191.558594 201.066406 191.980469 C 199.160156 193.609375 197.394531 195.441406 195.675781 197.304688 C 200.105469 193.902344 205.183594 191.410156 210.628906 190.027344 C 218.851562 187.933594 226.722656 189.324219 234.980469 190.402344 C 244.625 191.675781 254.203125 189.703125 263.757812 188.445312 C 272.351562 187.304688 280.949219 186.164062 289.542969 185.035156 C 289.441406 184.902344 289.402344 184.742188 289.433594 184.523438 Z M 286.640625 178.960938 C 284.320312 178.621094 281.941406 178.476562 279.601562 178.265625 C 274.890625 177.863281 270.179688 177.5625 265.457031 177.527344 C 262.609375 177.515625 259.785156 177.632812 256.988281 177.875 C 256.640625 177.914062 256.308594 177.949219 255.949219 177.980469 C 252.945312 178.277344 249.96875 178.722656 246.992188 179.296875 C 244.027344 179.867188 241.066406 180.566406 238.101562 181.382812 C 235.824219 182 233.558594 182.640625 231.292969 183.269531 C 239.730469 182.421875 248.175781 181.589844 256.628906 180.902344 C 267.644531 180.011719 278.769531 179.789062 289.609375 182.273438 C 289.523438 180.617188 288.816406 179.273438 286.640625 178.960938 Z M 277.640625 171.472656 C 279.398438 171.230469 281.144531 170.996094 282.894531 170.675781 C 285.234375 170.21875 287.234375 170.007812 287.730469 167.101562 C 288.074219 164.996094 288.183594 162.746094 288.253906 160.5625 C 286.238281 161.949219 283.445312 162.515625 281.265625 163.25 C 277.621094 164.46875 273.933594 165.59375 270.238281 166.660156 C 262.667969 168.835938 255.039062 170.800781 247.449219 172.890625 C 235.515625 176.203125 223.636719 179.953125 212.585938 185.503906 C 212.640625 185.492188 212.699219 185.484375 212.746094 185.472656 C 217.613281 184.605469 222.460938 183.929688 227.265625 182.714844 C 232.367188 181.417969 237.390625 179.863281 242.5 178.601562 C 247.203125 177.449219 251.925781 176.726562 256.671875 176.335938 C 263.507812 174.035156 270.488281 172.453125 277.640625 171.472656 Z M 285.242188 160.304688 C 282.964844 160.511719 280.6875 160.519531 278.410156 160.746094 C 269.601562 161.613281 260.726562 163.675781 252.160156 165.808594 C 236.808594 169.644531 221.984375 175.082031 207.59375 181.582031 C 205.320312 183.246094 203.128906 185.019531 201.054688 186.929688 C 197.53125 190.152344 194.382812 193.445312 193.082031 197.820312 C 195.660156 194.96875 198.265625 192.015625 201.332031 189.765625 C 202.808594 188.675781 204.421875 187.851562 206.101562 187.21875 C 211.949219 183.824219 218.09375 181.03125 224.390625 178.621094 C 230.699219 176.210938 237.15625 174.1875 243.65625 172.335938 C 250.945312 170.253906 258.273438 168.371094 265.570312 166.351562 C 269.289062 165.308594 273 164.242188 276.675781 163.09375 C 278.375 162.5625 280.0625 162.003906 281.738281 161.4375 C 282.808594 161.070312 284.144531 160.753906 285.378906 160.300781 C 285.335938 160.296875 285.289062 160.296875 285.242188 160.304688 Z M 192.09375 176.144531 C 189.015625 173.605469 185.511719 171.515625 182.125 169.441406 C 176.769531 166.15625 171.292969 163.070312 165.753906 160.132812 C 153.101562 153.40625 139.957031 147.039062 126.195312 142.941406 C 121.335938 141.5 116 140.066406 110.835938 140.292969 C 114.835938 142.304688 118.863281 144.285156 122.863281 146.308594 C 127.898438 148.082031 132.710938 150.660156 137.414062 153.121094 C 142.625 155.851562 147.9375 158.65625 152.699219 162.132812 C 160.578125 167.894531 168.570312 173.578125 176.082031 179.808594 C 177.921875 181.328125 179.734375 182.890625 181.527344 184.46875 C 182.222656 185.085938 183.019531 185.710938 183.808594 186.355469 C 184.296875 184.289062 185.683594 182.390625 187.152344 180.78125 C 182.613281 176.152344 177.097656 172.824219 170.878906 170.957031 C 169.910156 170.675781 170.371094 169.171875 171.34375 169.46875 C 177.789062 171.398438 183.527344 174.867188 188.246094 179.65625 C 188.332031 179.566406 188.414062 179.488281 188.511719 179.398438 C 189.671875 178.273438 190.90625 177.222656 192.183594 176.214844 C 192.160156 176.191406 192.125 176.167969 192.09375 176.144531 Z M 98.144531 171.195312 C 109.21875 171.386719 120.214844 171.875 131.082031 174.234375 C 141.6875 176.527344 151.980469 179.902344 162.464844 182.628906 C 157.515625 180.078125 152.339844 178.027344 147.570312 176.253906 C 136.867188 172.289062 125.769531 169.347656 114.585938 167.058594 C 114.496094 167.355469 114.246094 167.589844 113.832031 167.542969 C 108.269531 166.925781 102.789062 168.191406 98.144531 171.195312 Z M 97.214844 177.882812 C 120.855469 173.46875 146.277344 179.15625 168.457031 187.269531 C 169.640625 187.699219 170.835938 188.140625 172.007812 188.601562 C 170.3125 187.296875 168.519531 186.085938 166.664062 184.972656 C 166.488281 185.125 143.164062 178.519531 131.558594 175.941406 C 122.785156 173.992188 113.941406 173.261719 105.035156 172.945312 C 104.992188 173.136719 104.871094 173.328125 104.636719 173.449219 C 102.09375 174.828125 99.628906 176.300781 97.214844 177.882812 Z M 96.136719 179.996094 C 95.828125 180.597656 95.601562 181.132812 95.425781 181.675781 C 102.226562 179.675781 109.316406 178.796875 116.410156 179.21875 C 124.308594 179.6875 131.964844 181.84375 139.480469 184.207031 C 146.917969 186.539062 154.34375 188.890625 161.738281 191.335938 C 168.132812 193.4375 174.355469 195.933594 179.546875 200.308594 C 179.851562 200.5625 181.261719 200.46875 182.0625 200.207031 C 182.050781 200.183594 182.027344 200.160156 182.019531 200.125 C 180.414062 197.015625 178.265625 194.265625 175.742188 191.816406 C 175.652344 191.800781 175.570312 191.777344 175.492188 191.738281 C 169.316406 188.898438 162.710938 186.800781 156.21875 184.890625 C 143.679688 181.191406 130.6875 178.589844 117.597656 178.117188 C 110.429688 177.855469 103.25 178.269531 96.226562 179.679688 C 96.222656 179.78125 96.195312 179.894531 96.136719 179.996094 Z M 138.109375 187.210938 C 132.367188 186.972656 126.617188 186.753906 120.886719 186.539062 C 115.410156 186.339844 109.933594 186.132812 104.46875 185.921875 C 102.007812 185.832031 99.480469 185.914062 97.035156 185.628906 C 96.292969 185.535156 95.550781 185.292969 94.792969 185.246094 C 93.792969 185.167969 93.4375 185.433594 93.09375 186.03125 C 96.496094 185.597656 100.230469 185.890625 103.519531 186.0625 C 112.511719 186.535156 121.410156 188.175781 130.28125 189.574219 C 138.542969 190.882812 147 191.832031 155.023438 194.296875 C 159.09375 195.542969 162.953125 197.273438 166.898438 198.894531 C 170.402344 200.328125 174.242188 200.496094 177.632812 202.238281 C 178.019531 201.996094 178.417969 201.78125 178.816406 201.5625 C 178.679688 201.546875 178.53125 201.488281 178.40625 201.378906 C 173.089844 196.90625 166.542969 194.535156 160.023438 192.417969 C 157.960938 191.753906 155.898438 191.082031 153.832031 190.429688 C 153.710938 190.585938 145.207031 187.519531 138.109375 187.210938 Z M 87.910156 192.273438 C 88.097656 191.796875 88.613281 191.570312 89.074219 191.839844 C 89.097656 191.847656 89.121094 191.863281 89.144531 191.875 C 89.019531 189.660156 88.808594 186.917969 91.125 186.382812 C 91.148438 186.371094 91.171875 186.363281 91.210938 186.363281 C 91.222656 186.316406 91.234375 186.28125 91.25 186.238281 C 91.8125 185.117188 92.140625 183.828125 93.476562 183.570312 C 93.613281 183.539062 93.765625 183.523438 93.902344 183.515625 C 94.058594 183.625 94.265625 183.675781 94.5 183.601562 L 94.753906 183.519531 C 96.144531 183.621094 97.710938 184.109375 98.960938 184.148438 L 117.359375 184.835938 C 123.46875 185.066406 129.578125 185.261719 135.6875 185.527344 C 136.8125 185.570312 137.953125 185.621094 139.078125 185.726562 C 139.066406 185.710938 139.042969 185.710938 139.019531 185.699219 C 131.789062 183.421875 124.441406 181.335938 116.84375 180.820312 C 109.359375 180.316406 101.910156 181.285156 94.753906 183.519531 C 94.46875 183.496094 94.179688 183.5 93.902344 183.515625 C 93.632812 183.324219 93.496094 182.9375 93.5625 182.605469 C 93.753906 181.703125 94.011719 180.886719 94.371094 180.078125 C 94.160156 180.132812 93.953125 180.171875 93.742188 180.21875 C 92.816406 180.441406 92.507812 179.261719 93.191406 178.777344 C 96.171875 176.628906 99.265625 174.65625 102.46875 172.863281 C 100.222656 172.800781 97.988281 172.753906 95.742188 172.726562 C 95.101562 172.71875 94.679688 171.796875 95.226562 171.375 C 99.195312 168.246094 103.851562 166.371094 108.746094 165.917969 C 108.554688 165.890625 108.371094 165.847656 108.175781 165.820312 C 105.335938 165.292969 102.382812 165.039062 99.558594 164.382812 C 98.816406 164.210938 98.867188 163.003906 99.609375 162.867188 C 100.570312 162.703125 101.941406 161.503906 102.933594 161.109375 C 103.964844 160.691406 105.019531 160.347656 106.101562 160.074219 C 108.539062 159.449219 111.050781 159.136719 113.554688 159 C 119.414062 158.667969 125.316406 159.316406 131.078125 160.316406 C 136.941406 161.320312 142.820312 162.679688 148.523438 164.460938 C 143.449219 160.285156 138.328125 156.164062 132.496094 153.058594 C 129.050781 151.234375 125.585938 149.457031 122.105469 147.699219 C 121.992188 147.664062 121.867188 147.613281 121.75 147.574219 C 121.589844 147.523438 121.480469 147.441406 121.402344 147.34375 C 116.914062 145.085938 112.421875 142.847656 107.957031 140.589844 C 107.605469 140.40625 107.523438 140.105469 107.589844 139.808594 C 107.519531 139.4375 107.683594 139.054688 108.167969 138.976562 C 113.214844 138.238281 118.4375 139.269531 123.3125 140.515625 C 130.089844 142.261719 136.664062 144.773438 143.097656 147.496094 C 156.28125 153.09375 169.0625 159.742188 181.324219 167.117188 C 185.390625 169.570312 189.574219 172.039062 193.242188 175.074219 C 193.3125 175.136719 193.375 175.207031 193.410156 175.277344 C 193.445312 175.253906 202.410156 169.433594 205.199219 167.855469 C 220.496094 159.222656 236.75 152.320312 252.867188 145.367188 C 256.546875 143.785156 260.238281 142.199219 263.917969 140.570312 C 269.339844 138.15625 274.917969 136.25 280.414062 134.007812 C 280.90625 133.808594 281.347656 134.097656 281.519531 134.472656 C 281.519531 134.480469 281.527344 134.480469 281.527344 134.480469 C 281.550781 134.53125 281.550781 134.574219 281.558594 134.621094 C 281.609375 134.898438 281.496094 135.207031 281.167969 135.390625 C 277.710938 137.234375 274.527344 139.78125 271.335938 142.011719 C 266.09375 145.664062 260.875 149.339844 255.609375 152.96875 C 242.738281 161.828125 228.492188 168.226562 215.222656 176.46875 C 215.070312 176.550781 214.917969 176.652344 214.765625 176.738281 C 225.84375 172.089844 237.179688 168.101562 248.828125 165.046875 C 257.578125 162.75 266.449219 160.925781 275.40625 159.589844 C 277.589844 159.269531 279.742188 159.105469 281.957031 158.972656 C 283.339844 158.890625 284.734375 158.820312 286.125 158.65625 C 286.726562 158.582031 288.0625 158.613281 288.523438 158.179688 C 288.761719 157.957031 289.121094 157.902344 289.414062 158.011719 C 289.425781 158.011719 289.425781 158.011719 289.425781 158.011719 C 289.628906 158.125 289.789062 158.300781 289.859375 158.5 C 289.859375 158.511719 289.871094 158.511719 289.871094 158.519531 C 289.882812 158.578125 289.890625 158.660156 289.890625 158.742188 L 289.882812 158.902344 C 289.769531 162.035156 289.699219 165.382812 289.230469 168.484375 C 288.761719 171.609375 285.378906 171.8125 282.785156 172.28125 C 278.359375 173.085938 273.886719 173.503906 269.480469 174.445312 C 267.316406 174.894531 265.167969 175.421875 263.027344 176.023438 C 266.53125 175.949219 270.054688 176.027344 273.59375 176.246094 C 276.285156 176.410156 278.972656 176.632812 281.660156 176.878906 C 283.808594 177.085938 286.449219 176.941406 288.488281 177.695312 C 291.421875 178.789062 291.449219 181.921875 291.007812 184.574219 C 290.992188 184.675781 290.957031 184.769531 290.90625 184.847656 C 291.453125 184.785156 291.996094 184.710938 292.539062 184.632812 C 292.988281 184.578125 293.328125 184.773438 293.488281 185.21875 C 294.3125 187.542969 294.800781 189.90625 294.988281 192.347656 C 295.082031 192.296875 295.175781 192.242188 295.28125 192.1875 C 295.644531 192.027344 296.183594 192.101562 296.351562 192.507812 C 297.015625 194.09375 299.34375 196.285156 297.492188 197.996094 C 296.234375 199.175781 293.472656 199.398438 291.859375 199.820312 C 286.414062 201.199219 280.882812 202.261719 275.355469 203.238281 C 270.378906 204.125 265.375 204.921875 260.363281 205.636719 C 258.28125 205.925781 255.890625 206.585938 253.773438 206.460938 L 253.691406 206.457031 C 246.113281 206.089844 238.46875 208.125 230.921875 208.871094 C 224.671875 209.488281 218.410156 209.992188 212.144531 210.425781 C 203.300781 211.015625 194.546875 211.4375 185.730469 210.871094 C 173.890625 210.101562 162.035156 209.492188 150.191406 208.828125 C 139.300781 208.21875 128.460938 206.953125 117.636719 205.621094 C 111.398438 204.84375 105.132812 204.046875 98.9375 202.972656 C 96.90625 202.625 94.894531 202.222656 92.878906 201.839844 C 91.035156 201.492188 87.339844 201.078125 86.816406 198.816406 C 86.804688 198.734375 86.796875 198.65625 86.796875 198.585938 C 86.730469 196.363281 87.085938 194.339844 87.910156 192.273438 " fill-opacity="1" fill-rule="nonzero"/></g><path fill="#040606" d="M 280.414062 134.007812 C 280.90625 133.808594 281.347656 134.097656 281.519531 134.472656 C 281.371094 134.066406 280.917969 133.761719 280.414062 134.007812 " fill-opacity="1" fill-rule="nonzero"/><path fill="#040606" d="M 191.671875 201.421875 C 191.671875 201.425781 191.671875 201.425781 191.671875 201.425781 C 191.671875 201.425781 191.675781 201.425781 191.679688 201.425781 C 191.671875 201.425781 191.675781 201.421875 191.671875 201.421875 " fill-opacity="1" fill-rule="nonzero"/><path fill="#040606" d="M 223.386719 129.269531 C 223.128906 129.757812 222.65625 130.46875 223.253906 130.917969 C 223.898438 131.40625 225.300781 130.941406 225.96875 130.722656 C 227.488281 130.222656 228.835938 129.34375 230.484375 129.335938 C 230.492188 129.335938 230.503906 129.335938 230.511719 129.335938 C 231.609375 130.621094 232.800781 131.8125 234.125 132.867188 C 234.671875 133.308594 235.9375 134.628906 236.800781 134.207031 C 237.667969 133.785156 237.207031 132.203125 237.089844 131.546875 C 236.792969 129.84375 236.300781 128.191406 236.429688 126.449219 C 236.507812 126.449219 236.585938 126.421875 236.660156 126.359375 L 241.703125 122.234375 C 241.992188 122 241.828125 121.601562 241.566406 121.511719 C 241.515625 121.4375 241.429688 121.378906 241.308594 121.363281 L 234.554688 120.3125 C 233.945312 117.652344 233.265625 115.011719 232.515625 112.390625 C 232.429688 112.09375 232.007812 112.070312 231.828125 112.285156 C 231 113.304688 229.25 118.066406 228.753906 119.199219 C 228.714844 119.167969 228.664062 119.132812 228.605469 119.136719 C 226.570312 119.195312 223.890625 119.835938 223.320312 119.972656 C 223.128906 120.019531 222.699219 120.058594 222.554688 120.257812 C 222.121094 120.855469 222.949219 121.441406 223.296875 121.800781 C 224.203125 122.726562 225.101562 123.660156 226.007812 124.585938 C 226 124.59375 225.996094 124.601562 225.988281 124.609375 C 225.125 126.164062 224.226562 127.703125 223.386719 129.269531 " fill-opacity="1" fill-rule="nonzero"/><path fill="#040606" d="M 188.261719 159.023438 C 188.230469 159.378906 188.125 159.917969 188.59375 160.039062 C 189.09375 160.164062 189.8125 159.542969 190.15625 159.246094 C 190.933594 158.578125 191.515625 157.722656 192.492188 157.308594 C 192.496094 157.304688 192.503906 157.304688 192.507812 157.300781 C 193.480469 157.792969 194.480469 158.203125 195.53125 158.503906 C 195.964844 158.628906 197.042969 159.101562 197.449219 158.636719 C 197.863281 158.167969 197.191406 157.34375 196.960938 156.988281 C 196.363281 156.050781 195.660156 155.1875 195.304688 154.121094 C 195.351562 154.105469 195.390625 154.066406 195.421875 154.011719 L 197.390625 150.316406 C 197.5 150.109375 197.304688 149.910156 197.128906 149.921875 C 197.078125 149.890625 197.011719 149.875 196.9375 149.894531 L 192.667969 150.945312 C 191.644531 149.515625 190.589844 148.117188 189.492188 146.746094 C 189.367188 146.589844 189.109375 146.679688 189.058594 146.851562 C 188.820312 147.664062 188.960938 150.925781 188.949219 151.71875 C 188.917969 151.710938 188.878906 151.699219 188.84375 151.714844 C 187.652344 152.257812 186.222656 153.300781 185.914062 153.523438 C 185.8125 153.597656 185.570312 153.726562 185.53125 153.878906 C 185.421875 154.34375 186.058594 154.484375 186.355469 154.613281 C 187.125 154.941406 187.890625 155.269531 188.65625 155.597656 C 188.652344 155.605469 188.652344 155.609375 188.652344 155.617188 C 188.523438 156.75 188.371094 157.886719 188.261719 159.023438 " fill-opacity="1" fill-rule="nonzero"/><path fill="#040606" d="M 166.691406 143.644531 C 166.851562 143.808594 167.082031 144.082031 167.335938 143.898438 C 167.609375 143.703125 167.597656 143.085938 167.59375 142.789062 C 167.578125 142.117188 167.390625 141.472656 167.59375 140.808594 C 167.59375 140.804688 167.59375 140.804688 167.59375 140.800781 C 168.246094 140.519531 168.871094 140.1875 169.460938 139.789062 C 169.703125 139.625 170.386719 139.277344 170.324219 138.882812 C 170.261719 138.484375 169.570312 138.472656 169.292969 138.4375 C 168.570312 138.347656 167.847656 138.34375 167.164062 138.074219 C 167.175781 138.042969 167.171875 138.007812 167.15625 137.972656 L 166.125 135.445312 C 166.0625 135.300781 165.882812 135.316406 165.816406 135.410156 C 165.777344 135.421875 165.746094 135.449219 165.722656 135.496094 L 164.46875 138.070312 C 163.328125 137.984375 162.183594 137.933594 161.039062 137.910156 C 160.910156 137.90625 160.847656 138.074219 160.910156 138.171875 C 161.21875 138.628906 162.914062 139.917969 163.308594 140.253906 C 163.289062 140.265625 163.269531 140.28125 163.265625 140.304688 C 163.039062 141.128906 162.964844 142.277344 162.949219 142.523438 C 162.945312 142.605469 162.90625 142.78125 162.96875 142.863281 C 163.15625 143.113281 163.492188 142.855469 163.679688 142.757812 C 164.164062 142.511719 164.648438 142.265625 165.132812 142.019531 C 165.132812 142.023438 165.136719 142.023438 165.140625 142.027344 C 165.65625 142.566406 166.164062 143.113281 166.691406 143.644531 " fill-opacity="1" fill-rule="nonzero"/><path fill="#040606" d="M 198.765625 131.007812 C 198.875 131.117188 199.03125 131.308594 199.207031 131.183594 C 199.394531 131.046875 199.382812 130.625 199.378906 130.425781 C 199.371094 129.96875 199.242188 129.527344 199.382812 129.074219 C 199.382812 129.074219 199.382812 129.070312 199.382812 129.066406 C 199.828125 128.875 200.25 128.652344 200.652344 128.378906 C 200.816406 128.265625 201.285156 128.03125 201.246094 127.757812 C 201.203125 127.488281 200.726562 127.480469 200.542969 127.457031 C 200.046875 127.394531 199.554688 127.390625 199.089844 127.207031 C 199.09375 127.1875 199.09375 127.164062 199.082031 127.140625 L 198.378906 125.414062 C 198.339844 125.316406 198.214844 125.328125 198.167969 125.394531 C 198.144531 125.398438 198.121094 125.417969 198.105469 125.449219 L 197.25 127.207031 C 196.472656 127.148438 195.691406 127.113281 194.910156 127.097656 C 194.824219 127.09375 194.78125 127.207031 194.824219 127.273438 C 195.03125 127.585938 196.191406 128.464844 196.460938 128.695312 C 196.445312 128.703125 196.433594 128.714844 196.429688 128.730469 C 196.273438 129.292969 196.226562 130.078125 196.214844 130.246094 C 196.210938 130.300781 196.1875 130.421875 196.226562 130.476562 C 196.355469 130.648438 196.585938 130.46875 196.710938 130.402344 C 197.042969 130.234375 197.371094 130.066406 197.703125 129.898438 C 197.703125 129.902344 197.707031 129.902344 197.707031 129.90625 C 198.058594 130.273438 198.40625 130.648438 198.765625 131.007812 " fill-opacity="1" fill-rule="nonzero"/><path fill="#040606" d="M 157.675781 122.097656 C 157.898438 122.160156 158.234375 122.292969 158.363281 122.007812 C 158.507812 121.699219 158.195312 121.167969 158.042969 120.914062 C 157.703125 120.335938 157.222656 119.859375 157.074219 119.1875 C 157.074219 119.183594 157.074219 119.179688 157.070312 119.175781 C 157.503906 118.613281 157.886719 118.019531 158.203125 117.382812 C 158.335938 117.121094 158.765625 116.488281 158.515625 116.171875 C 158.265625 115.851562 157.65625 116.183594 157.398438 116.285156 C 156.726562 116.558594 156.089844 116.90625 155.363281 117.007812 C 155.359375 116.976562 155.339844 116.945312 155.304688 116.921875 L 153.167969 115.222656 C 153.046875 115.125 152.894531 115.226562 152.882812 115.34375 C 152.855469 115.371094 152.839844 115.410156 152.84375 115.460938 L 153.011719 118.320312 C 151.972656 118.804688 150.949219 119.316406 149.9375 119.855469 C 149.824219 119.914062 149.851562 120.089844 149.953125 120.144531 C 150.445312 120.394531 152.558594 120.691406 153.066406 120.792969 C 153.058594 120.8125 153.046875 120.835938 153.054688 120.859375 C 153.257812 121.6875 153.757812 122.726562 153.863281 122.949219 C 153.898438 123.023438 153.953125 123.195312 154.046875 123.238281 C 154.332031 123.359375 154.5 122.972656 154.617188 122.796875 C 154.917969 122.34375 155.21875 121.894531 155.523438 121.441406 C 155.523438 121.441406 155.527344 121.445312 155.53125 121.445312 C 156.246094 121.664062 156.957031 121.894531 157.675781 122.097656 " fill-opacity="1" fill-rule="nonzero"/><g clip-path="url(#bd1f2546bf)"><path fill="#040606" d="M 171.804688 112.585938 C 171.769531 112.9375 171.667969 113.476562 172.132812 113.597656 C 172.636719 113.726562 173.351562 113.101562 173.695312 112.808594 C 174.476562 112.136719 175.054688 111.28125 176.03125 110.867188 C 176.039062 110.863281 176.042969 110.863281 176.046875 110.859375 C 177.019531 111.351562 178.023438 111.761719 179.070312 112.0625 C 179.503906 112.1875 180.582031 112.660156 180.992188 112.195312 C 181.402344 111.730469 180.734375 110.902344 180.503906 110.546875 C 179.902344 109.609375 179.199219 108.746094 178.847656 107.683594 C 178.890625 107.664062 178.929688 107.628906 178.960938 107.570312 L 180.929688 103.878906 C 181.042969 103.667969 180.847656 103.46875 180.667969 103.484375 C 180.621094 103.449219 180.554688 103.4375 180.476562 103.453125 L 176.207031 104.503906 C 175.1875 103.074219 174.128906 101.679688 173.035156 100.308594 C 172.910156 100.152344 172.652344 100.242188 172.601562 100.414062 C 172.359375 101.222656 172.503906 104.484375 172.488281 105.277344 C 172.460938 105.269531 172.421875 105.261719 172.386719 105.277344 C 171.191406 105.816406 169.761719 106.863281 169.457031 107.082031 C 169.355469 107.15625 169.109375 107.285156 169.074219 107.441406 C 168.964844 107.902344 169.601562 108.046875 169.898438 108.171875 C 170.664062 108.5 171.429688 108.828125 172.195312 109.15625 C 172.195312 109.164062 172.195312 109.171875 172.195312 109.175781 C 172.0625 110.3125 171.914062 111.449219 171.804688 112.585938 " fill-opacity="1" fill-rule="nonzero"/></g><g fill="#000000" fill-opacity="1"><g transform="translate(107.603014, 263.64899)"><g><path d="M 7.59375 -15.6875 L 7.59375 0 L 1.84375 0 L 1.84375 -25.28125 L 7.59375 -25.28125 L 17.65625 -9.59375 L 17.703125 -9.59375 L 17.703125 -25.28125 L 23.46875 -25.28125 L 23.46875 0 L 17.703125 0 L 7.65625 -15.6875 Z M 7.59375 -15.6875 "/></g></g></g><g fill="#000000" fill-opacity="1"><g transform="translate(132.900901, 263.64899)"><g><path d="M 0.703125 -12.65625 C 0.703125 -16.3125 1.945312 -19.40625 4.4375 -21.9375 C 6.9375 -24.46875 9.941406 -25.734375 13.453125 -25.734375 C 16.984375 -25.734375 19.984375 -24.472656 22.453125 -21.953125 C 24.929688 -19.429688 26.171875 -16.332031 26.171875 -12.65625 C 26.171875 -8.957031 24.953125 -5.847656 22.515625 -3.328125 C 20.085938 -0.804688 17.066406 0.453125 13.453125 0.453125 C 9.753906 0.453125 6.703125 -0.796875 4.296875 -3.296875 C 1.898438 -5.796875 0.703125 -8.914062 0.703125 -12.65625 Z M 6.921875 -12.65625 C 6.921875 -11.320312 7.125 -10.109375 7.53125 -9.015625 C 7.945312 -7.929688 8.664062 -7.007812 9.6875 -6.25 C 10.707031 -5.488281 11.960938 -5.109375 13.453125 -5.109375 C 15.597656 -5.109375 17.21875 -5.84375 18.3125 -7.3125 C 19.40625 -8.789062 19.953125 -10.570312 19.953125 -12.65625 C 19.953125 -14.71875 19.394531 -16.488281 18.28125 -17.96875 C 17.164062 -19.445312 15.554688 -20.1875 13.453125 -20.1875 C 11.367188 -20.1875 9.757812 -19.445312 8.625 -17.96875 C 7.488281 -16.488281 6.921875 -14.71875 6.921875 -12.65625 Z M 6.921875 -12.65625 "/></g></g></g><g fill="#000000" fill-opacity="1"><g transform="translate(159.760776, 263.64899)"><g><path d="M 0.25 -20.21875 L 0.25 -25.28125 L 18.015625 -25.28125 L 18.015625 -20.21875 L 12.015625 -20.21875 L 12.015625 0 L 6.25 0 L 6.25 -20.21875 Z M 0.25 -20.21875 "/></g></g></g><g fill="#000000" fill-opacity="1"><g transform="translate(178.014468, 263.64899)"><g><path d="M 16.296875 -25.28125 L 16.296875 -20.21875 L 7.59375 -20.21875 L 7.59375 -15.203125 L 15.9375 -15.203125 L 15.9375 -10.140625 L 7.59375 -10.140625 L 7.59375 -5.0625 L 16.296875 -5.0625 L 16.296875 0 L 1.84375 0 L 1.84375 -25.28125 Z M 16.296875 -25.28125 "/></g></g></g><g fill="#000000" fill-opacity="1"><g transform="translate(195.778119, 263.64899)"><g><path d="M 11.15625 -25.734375 C 12.519531 -25.734375 13.851562 -25.535156 15.15625 -25.140625 C 16.46875 -24.742188 17.441406 -24.351562 18.078125 -23.96875 L 19 -23.34375 L 16.671875 -18.75 C 16.484375 -18.875 16.222656 -19.03125 15.890625 -19.21875 C 15.566406 -19.414062 14.957031 -19.675781 14.0625 -20 C 13.164062 -20.332031 12.328125 -20.5 11.546875 -20.5 C 10.585938 -20.5 9.847656 -20.289062 9.328125 -19.875 C 8.804688 -19.46875 8.546875 -18.921875 8.546875 -18.234375 C 8.546875 -17.878906 8.664062 -17.554688 8.90625 -17.265625 C 9.15625 -16.972656 9.578125 -16.65625 10.171875 -16.3125 C 10.765625 -15.976562 11.285156 -15.707031 11.734375 -15.5 C 12.179688 -15.300781 12.875 -14.992188 13.8125 -14.578125 C 15.445312 -13.890625 16.84375 -12.945312 18 -11.75 C 19.15625 -10.550781 19.734375 -9.195312 19.734375 -7.6875 C 19.734375 -6.238281 19.472656 -4.972656 18.953125 -3.890625 C 18.429688 -2.804688 17.710938 -1.957031 16.796875 -1.34375 C 15.890625 -0.726562 14.882812 -0.273438 13.78125 0.015625 C 12.6875 0.304688 11.492188 0.453125 10.203125 0.453125 C 9.097656 0.453125 8.015625 0.335938 6.953125 0.109375 C 5.890625 -0.109375 5 -0.382812 4.28125 -0.71875 C 3.570312 -1.050781 2.929688 -1.378906 2.359375 -1.703125 C 1.785156 -2.035156 1.367188 -2.316406 1.109375 -2.546875 L 0.703125 -2.875 L 3.578125 -7.71875 C 3.828125 -7.519531 4.164062 -7.257812 4.59375 -6.9375 C 5.019531 -6.625 5.78125 -6.203125 6.875 -5.671875 C 7.96875 -5.140625 8.9375 -4.875 9.78125 -4.875 C 12.207031 -4.875 13.421875 -5.703125 13.421875 -7.359375 C 13.421875 -7.703125 13.332031 -8.019531 13.15625 -8.3125 C 12.988281 -8.613281 12.679688 -8.910156 12.234375 -9.203125 C 11.796875 -9.503906 11.410156 -9.738281 11.078125 -9.90625 C 10.742188 -10.082031 10.191406 -10.347656 9.421875 -10.703125 C 8.648438 -11.066406 8.082031 -11.335938 7.71875 -11.515625 C 6.1875 -12.273438 5 -13.222656 4.15625 -14.359375 C 3.320312 -15.492188 2.90625 -16.710938 2.90625 -18.015625 C 2.90625 -20.285156 3.742188 -22.140625 5.421875 -23.578125 C 7.097656 -25.015625 9.007812 -25.734375 11.15625 -25.734375 Z M 11.15625 -25.734375 "/></g></g></g><g fill="#000000" fill-opacity="1"><g transform="translate(216.359456, 263.64899)"><g/></g></g><g fill="#000000" fill-opacity="1"><g transform="translate(224.720628, 263.64899)"><g><path d="M 14.671875 -25.28125 L 24.875 0 L 18.6875 0 L 16.828125 -5.0625 L 7.203125 -5.0625 L 5.328125 0 L -0.859375 0 L 9.34375 -25.28125 Z M 14.859375 -10.109375 L 12.046875 -17.46875 L 11.984375 -17.46875 L 9.15625 -10.109375 Z M 14.859375 -10.109375 "/></g></g></g><g fill="#000000" fill-opacity="1"><g transform="translate(248.732195, 263.64899)"><g><path d="M 1.84375 -25.28125 L 11.0625 -25.28125 C 13.632812 -25.28125 15.71875 -24.613281 17.3125 -23.28125 C 18.90625 -21.957031 19.703125 -20.03125 19.703125 -17.5 C 19.703125 -14.96875 18.894531 -12.976562 17.28125 -11.53125 C 15.664062 -10.09375 13.59375 -9.375 11.0625 -9.375 L 7.59375 -9.375 L 7.59375 0 L 1.84375 0 Z M 7.59375 -13.96875 L 9.21875 -13.96875 C 10.507812 -13.96875 11.566406 -14.226562 12.390625 -14.75 C 13.222656 -15.269531 13.640625 -16.125 13.640625 -17.3125 C 13.640625 -18.519531 13.222656 -19.382812 12.390625 -19.90625 C 11.566406 -20.425781 10.507812 -20.6875 9.21875 -20.6875 L 7.59375 -20.6875 Z M 7.59375 -13.96875 "/></g></g></g><g fill="#000000" fill-opacity="1"><g transform="translate(269.129764, 263.64899)"><g><path d="M 1.84375 -25.28125 L 11.0625 -25.28125 C 13.632812 -25.28125 15.71875 -24.613281 17.3125 -23.28125 C 18.90625 -21.957031 19.703125 -20.03125 19.703125 -17.5 C 19.703125 -14.96875 18.894531 -12.976562 17.28125 -11.53125 C 15.664062 -10.09375 13.59375 -9.375 11.0625 -9.375 L 7.59375 -9.375 L 7.59375 0 L 1.84375 0 Z M 7.59375 -13.96875 L 9.21875 -13.96875 C 10.507812 -13.96875 11.566406 -14.226562 12.390625 -14.75 C 13.222656 -15.269531 13.640625 -16.125 13.640625 -17.3125 C 13.640625 -18.519531 13.222656 -19.382812 12.390625 -19.90625 C 11.566406 -20.425781 10.507812 -20.6875 9.21875 -20.6875 L 7.59375 -20.6875 Z M 7.59375 -13.96875 "/></g></g></g></svg>